<?xml version="1.0" standalone="no"?>
<!DOCTYPE svg PUBLIC "-//W3C//DTD SVG 20010904//EN"
 "http://www.w3.org/TR/2001/REC-SVG-20010904/DTD/svg10.dtd">
<svg version="1.0" xmlns="http://www.w3.org/2000/svg"
 width="140.000000pt" height="142.000000pt" viewBox="0 0 140.000000 142.000000"
 preserveAspectRatio="xMidYMid meet">
<metadata>
Created by potrace 1.16, written by Peter Selinger 2001-2019
</metadata>
<g transform="translate(0.000000,142.000000) scale(0.100000,-0.100000)"
fill="#000000" stroke="none">
<path d="M555 1385 c-140 -30 -260 -99 -361 -208 -73 -78 -113 -144 -150 -252
-25 -71 -28 -94 -28 -210 -1 -110 3 -141 22 -199 65 -193 184 -334 354 -418
123 -61 248 -83 383 -67 168 20 283 77 405 199 141 140 200 283 200 480 0 125
-18 206 -65 303 -138 284 -455 439 -760 372z m191 -395 c94 -18 177 -36 184
-40 13 -8 9 -55 -16 -177 l-6 -33 46 0 c42 0 46 -2 46 -25 0 -24 3 -25 55 -25
54 0 55 -1 71 -37 10 -21 19 -71 22 -110 4 -71 4 -73 -20 -73 -15 0 -27 -8
-33 -22 -15 -34 -58 -35 -83 -3 -20 25 -21 25 -27 5 -12 -39 -82 -39 -92 1 -8
28 -37 20 -41 -11 -6 -48 -18 -49 -222 -11 -143 27 -195 41 -205 54 -11 15
-13 16 -19 2 -7 -20 -66 -21 -66 0 0 19 -29 19 -36 0 -4 -8 -19 -15 -35 -15
l-28 0 2 157 2 158 50 0 50 0 5 65 5 65 72 3 71 3 7 42 c9 52 22 70 49 64 12
-3 98 -19 192 -37z"/>
<path d="M550 981 c0 -3 -20 -112 -45 -240 -24 -129 -43 -236 -42 -237 5 -5
340 -65 343 -61 3 2 11 40 20 83 47 243 73 389 70 391 -7 7 -346 69 -346 64z
m65 -186 c14 -3 25 -11 25 -18 0 -7 16 -13 36 -15 20 -1 43 -6 53 -12 12 -7 8
-10 -19 -10 -44 -2 -33 -6 58 -20 61 -10 72 -15 72 -32 0 -14 -5 -18 -17 -14
-10 2 -45 10 -78 16 -110 20 -113 21 -90 30 l20 9 -20 1 -20 1 20 9 c19 8 19
9 -2 9 -18 1 -23 -5 -23 -24 0 -32 -19 -40 -67 -28 -37 9 -38 11 -35 49 4 58
8 65 37 59 14 -3 36 -7 50 -10z"/>
</g>
</svg>
